<mxfile host="app.diagrams.net" modified="2020-08-11T14:33:19.811Z" agent="5.0 (Windows NT 10.0; Win64; x64) AppleWebKit/537.36 (KHTML, like Gecko) Chrome/84.0.4147.105 Safari/537.36" etag="kK7wp-Y0uGXRv67HCAQj" version="13.5.9" type="github">
  <diagram id="0tSC_M_eEtkO_rULZrAe" name="Page-1">
    <mxGraphModel dx="553" dy="339" grid="1" gridSize="10" guides="1" tooltips="1" connect="1" arrows="1" fold="1" page="1" pageScale="1" pageWidth="827" pageHeight="1169" math="0" shadow="0">
      <root>
        <mxCell id="0" />
        <mxCell id="1" parent="0" />
        <mxCell id="TsJawbGZ0Tr1xja5NnsV-1" value="Torneo" style="swimlane;fontStyle=1;align=center;verticalAlign=top;childLayout=stackLayout;horizontal=1;startSize=26;horizontalStack=0;resizeParent=1;resizeParentMax=0;resizeLast=0;collapsible=1;marginBottom=0;" vertex="1" parent="1">
          <mxGeometry x="210" y="140" width="160" height="98" as="geometry" />
        </mxCell>
        <mxCell id="TsJawbGZ0Tr1xja5NnsV-2" value="- fechaInicio: Date&#xa;- fechaFinal: Date&#xa;- grupos: ArrayList&lt;Grupo&gt;" style="text;strokeColor=none;fillColor=none;align=left;verticalAlign=top;spacingLeft=4;spacingRight=4;overflow=hidden;rotatable=0;points=[[0,0.5],[1,0.5]];portConstraint=eastwest;" vertex="1" parent="TsJawbGZ0Tr1xja5NnsV-1">
          <mxGeometry y="26" width="160" height="64" as="geometry" />
        </mxCell>
        <mxCell id="TsJawbGZ0Tr1xja5NnsV-3" value="" style="line;strokeWidth=1;fillColor=none;align=left;verticalAlign=middle;spacingTop=-1;spacingLeft=3;spacingRight=3;rotatable=0;labelPosition=right;points=[];portConstraint=eastwest;" vertex="1" parent="TsJawbGZ0Tr1xja5NnsV-1">
          <mxGeometry y="90" width="160" height="8" as="geometry" />
        </mxCell>
        <mxCell id="TsJawbGZ0Tr1xja5NnsV-5" value="Grupo" style="swimlane;fontStyle=1;align=center;verticalAlign=top;childLayout=stackLayout;horizontal=1;startSize=26;horizontalStack=0;resizeParent=1;resizeParentMax=0;resizeLast=0;collapsible=1;marginBottom=0;" vertex="1" parent="1">
          <mxGeometry x="411" y="140" width="170" height="128" as="geometry" />
        </mxCell>
        <mxCell id="TsJawbGZ0Tr1xja5NnsV-6" value="- nombre: String&#xa;- ciudad: String&#xa;- estadios: ArrayList&lt;Estadio&gt;&#xa;- equipos: ArrayList&lt;Equipo&gt;" style="text;strokeColor=none;fillColor=none;align=left;verticalAlign=top;spacingLeft=4;spacingRight=4;overflow=hidden;rotatable=0;points=[[0,0.5],[1,0.5]];portConstraint=eastwest;" vertex="1" parent="TsJawbGZ0Tr1xja5NnsV-5">
          <mxGeometry y="26" width="170" height="94" as="geometry" />
        </mxCell>
        <mxCell id="TsJawbGZ0Tr1xja5NnsV-7" value="" style="line;strokeWidth=1;fillColor=none;align=left;verticalAlign=middle;spacingTop=-1;spacingLeft=3;spacingRight=3;rotatable=0;labelPosition=right;points=[];portConstraint=eastwest;" vertex="1" parent="TsJawbGZ0Tr1xja5NnsV-5">
          <mxGeometry y="120" width="170" height="8" as="geometry" />
        </mxCell>
        <mxCell id="TsJawbGZ0Tr1xja5NnsV-8" value="Equipo" style="swimlane;fontStyle=1;align=center;verticalAlign=top;childLayout=stackLayout;horizontal=1;startSize=26;horizontalStack=0;resizeParent=1;resizeParentMax=0;resizeLast=0;collapsible=1;marginBottom=0;" vertex="1" parent="1">
          <mxGeometry x="620" y="140" width="190" height="98" as="geometry" />
        </mxCell>
        <mxCell id="TsJawbGZ0Tr1xja5NnsV-9" value="- nombreDelPais: String&#xa;- slogan: String&#xa;- personas: ArrayList&lt;Persona&gt;" style="text;strokeColor=none;fillColor=none;align=left;verticalAlign=top;spacingLeft=4;spacingRight=4;overflow=hidden;rotatable=0;points=[[0,0.5],[1,0.5]];portConstraint=eastwest;" vertex="1" parent="TsJawbGZ0Tr1xja5NnsV-8">
          <mxGeometry y="26" width="190" height="64" as="geometry" />
        </mxCell>
        <mxCell id="TsJawbGZ0Tr1xja5NnsV-10" value="" style="line;strokeWidth=1;fillColor=none;align=left;verticalAlign=middle;spacingTop=-1;spacingLeft=3;spacingRight=3;rotatable=0;labelPosition=right;points=[];portConstraint=eastwest;" vertex="1" parent="TsJawbGZ0Tr1xja5NnsV-8">
          <mxGeometry y="90" width="190" height="8" as="geometry" />
        </mxCell>
        <mxCell id="TsJawbGZ0Tr1xja5NnsV-11" value="Persona" style="swimlane;fontStyle=1;align=center;verticalAlign=top;childLayout=stackLayout;horizontal=1;startSize=26;horizontalStack=0;resizeParent=1;resizeParentMax=0;resizeLast=0;collapsible=1;marginBottom=0;" vertex="1" parent="1">
          <mxGeometry x="630" y="250" width="170" height="128" as="geometry" />
        </mxCell>
        <mxCell id="TsJawbGZ0Tr1xja5NnsV-12" value="- IDPasaporte: int&#xa;- nombre: String&#xa;..." style="text;strokeColor=none;fillColor=none;align=left;verticalAlign=top;spacingLeft=4;spacingRight=4;overflow=hidden;rotatable=0;points=[[0,0.5],[1,0.5]];portConstraint=eastwest;" vertex="1" parent="TsJawbGZ0Tr1xja5NnsV-11">
          <mxGeometry y="26" width="170" height="94" as="geometry" />
        </mxCell>
        <mxCell id="TsJawbGZ0Tr1xja5NnsV-13" value="" style="line;strokeWidth=1;fillColor=none;align=left;verticalAlign=middle;spacingTop=-1;spacingLeft=3;spacingRight=3;rotatable=0;labelPosition=right;points=[];portConstraint=eastwest;" vertex="1" parent="TsJawbGZ0Tr1xja5NnsV-11">
          <mxGeometry y="120" width="170" height="8" as="geometry" />
        </mxCell>
      </root>
    </mxGraphModel>
  </diagram>
</mxfile>
